<?xml version="1.0" encoding="UTF-8"?>
<svg id="Layer_2" data-name="Layer 2" xmlns="http://www.w3.org/2000/svg" xmlns:xlink="http://www.w3.org/1999/xlink" viewBox="0 0 483.05 362.84">
  <defs>
    <style>
      .cls-1 {
        fill: #97999c;
      }

      .cls-1, .cls-2, .cls-3, .cls-4, .cls-5, .cls-6 {
        stroke: #fff;
        stroke-miterlimit: 3;
      }

      .cls-1, .cls-3, .cls-5, .cls-6 {
        stroke-width: 4.21px;
      }

      .cls-2 {
        fill: #ef3c23;
        stroke-width: 4.54px;
      }

      .cls-7, .cls-3, .cls-4 {
        fill: #fff;
      }

      .cls-4 {
        stroke-width: 1.31px;
      }

      .cls-5 {
        fill: #e0e1e2;
      }

      .cls-6 {
        fill: url(#linear-gradient);
      }
    </style>
    <linearGradient id="linear-gradient" x1="174.37" y1="199.66" x2="227.81" y2="199.66" gradientUnits="userSpaceOnUse">
      <stop offset="0" stop-color="#fff"/>
      <stop offset="1" stop-color="#231f20"/>
    </linearGradient>
  </defs>
  <g id="svg1">
    <g id="layer1">
      <path id="path1" class="cls-7" d="M42,57.33v-7.52c0-8.87,1.19-12.05,5.25-14.08,2.34-1.17,5.33-1.31,27.6-1.31,27.59,0,28.09.08,30.93,4.72,1.23,2,1.46,5.91,1.47,10.28v7.87M107.25,57.29l15.19-.38,15.19-.38,13.73-24.37c7.55-13.41,14.77-25.45,16.04-26.76s3.95-3.09,5.95-3.95c3.61-1.55,4.16-1.56,69.09-1.36q65.43.2,68.45,1.82c1.65.89,3.91,2.58,5.02,3.75,1.11,1.17,8.14,12.93,15.62,26.13,7.48,13.2,13.85,24.26,14.16,24.58s23.02.57,50.47.55c30.5-.02,52.06.27,55.44.74,14.67,2.06,27.69,13.81,30.57,27.59,1.18,5.62,1.18,242.94,0,248.55-2.67,12.75-15.05,25.38-27.75,28.3-2.18.5-74.17.74-213.29.71-169.11-.04-210.66-.24-213.37-1.02h0c-5.57-1.6-7.57-2.56-12.33-5.97-7.13-5.1-12.17-12.27-14.26-20.27-1.03-3.95-1.16-18.63-1.16-126.5,0-117.41.05-122.2,1.41-126.57.78-2.5,2.26-5.99,3.3-7.75,2.86-4.87,10.35-11.6,15.7-14.09,5.05-2.35,13.92-4.07,18.67-3.61l2.92.28,65.25-.04ZM454.8,343.84c3.96-1.97,7.84-5.98,9.58-9.93,1.16-2.62,1.45-5.09,1.49-12.44l.05-9.18-80.72-.19-80.72-.19-6.18,3.11c-3.4,1.71-10.57,4.55-15.93,6.31-31.75,10.43-66.68,8.22-96.89-6.13l-6.89-3.28H16.35l.27,9.56c.25,8.95.41,9.82,2.51,13.64,2.3,4.18,6.62,7.9,11.1,9.55,1.81.67,52.85.85,212.01.75,205.7-.13,209.68-.16,212.55-1.59h0ZM258.1,308.57c14.71-2.56,29.84-8.62,43.02-17.21,8.26-5.38,22.96-19.69,29.01-28.24,9.29-13.13,15.63-28.32,18.21-43.65,2.8-16.65,1.02-40.3-4.13-54.92-18.04-51.12-71.55-81.66-124.26-70.91-43.14,8.79-77.49,43.8-85.41,87.04-1.78,9.74-1.79,29.29-.02,39,8.18,44.8,44.37,80.76,89.36,88.79,8.05,1.44,26.27,1.49,34.22.11h0ZM230.51,286.38c-19.42-2.53-36.71-11.47-50.88-26.29-10.23-10.71-17.18-23.17-21.22-38.04-1.82-6.69-1.97-8.39-1.95-21.88.02-12.64.24-15.42,1.64-20.51,4.43-16.06,11.07-27.74,22.27-39.15,11.73-11.94,24.32-19.45,39.22-23.36,9.65-2.54,25.82-3.2,35.79-1.47,35.98,6.25,64.39,34.27,70.4,69.43,4.81,28.14-3.92,55.98-23.86,76.1-19.25,19.42-45.23,28.58-71.42,25.16h0ZM261,266.56c6.82-2.22,14.13-5.71,19.36-9.25l3.23-2.19-20.99-21.35-20.99-21.35-21.2,21.21-21.2,21.21,1.83,1.54c3.42,2.87,18.31,9.78,24.33,11.28,5.01,1.25,7.91,1.46,17.63,1.24,10.24-.23,12.39-.5,18-2.33h0ZM207.43,220.37c11.52-11.58,21.03-21.14,21.14-21.26.11-.12-8.91-9.46-20.05-20.77l-20.25-20.55-1.56,1.83c-2.2,2.58-6.06,9.38-8.33,14.67-3.86,9.01-4.76,14.09-4.76,26.63,0,12.73,1.11,18.3,5.54,28.07,1.64,3.62,6.78,12.43,7.25,12.43.04,0,9.49-9.47,21.01-21.05h0ZM302.59,231.08c8.39-16.71,9.41-38.15,2.64-55.58-2.42-6.22-8.86-17.33-10.07-17.35-.43,0-9.79,9.19-20.79,20.44l-20,20.45,21.09,21.15,21.09,21.15,1.73-2.55c.95-1.4,2.9-4.87,4.32-7.71ZM261.03,165.28c10.91-10.94,19.93-20.15,20.04-20.46.6-1.75-14.23-8.65-23.82-11.09-8.15-2.07-24.42-1.94-32.4.27-6.27,1.73-14.84,5.47-19.95,8.7l-3.22,2.04,19.72,20.19c10.85,11.11,19.74,20.2,19.76,20.22.02.01,8.96-8.93,19.88-19.87h0ZM136.05,130.61c20.75-31.1,52.65-50.98,89.48-55.75,10.04-1.3,31.52-.49,41.1,1.55,33.72,7.18,60.97,25.54,80.43,54.2l4.97,7.31h57.05s57.05,0,57.05,0l-.21-24.19c-.12-13.3-.53-25.39-.93-26.85-1.03-3.84-5.67-8.88-10.07-10.93l-3.79-1.77h-57.15s-57.15-.02-57.15-.02l-1.83-1.69c-1.01-.93-8.16-12.99-15.9-26.81-7.74-13.82-14.76-25.88-15.59-26.81l-1.52-1.69h-60.63c-59.31,0-60.65.03-61.89,1.47-.69.81-5.68,9.33-11.07,18.94-18.71,33.3-19.39,34.42-21.53,35.53-1.72.89-11.32,1.06-58.53,1.07H31.88s-3.75,1.76-3.75,1.76c-2.06.96-5,3.13-6.52,4.82-4.72,5.24-5.1,7.8-5.1,34.05v23.11h114.67l4.88-7.31ZM405.62,126.39c-15.46-4.24-17.71-25.72-3.38-32.39,10.84-5.05,22.92.73,25.28,12.1,2.62,12.62-9.37,23.72-21.9,20.29h0Z"/>
      <path id="path2" class="cls-4" d="M402.45,124.59c-5.78-3.01-9.06-8.34-9.2-14.96-.15-6.81,3.04-12.11,9.07-15.05,11.81-5.78,24.82,2.09,24.89,15.05.02,3.7-.32,5.11-1.87,7.75-3.61,6.14-8.49,8.96-15.41,8.91-3.1-.02-5.14-.49-7.48-1.71h0Z"/>
      <path id="path3" class="cls-4" d="M406.77,124.84c-11.24-2.07-16.46-16.82-8.97-25.35,6.36-7.25,16.87-7.71,23.55-1.03,11.27,11.27,1.3,29.3-14.58,26.38h0Z"/>
      <path id="path4" class="cls-7" d="M423.18,101.52c-.26-.26-.46-.79-.46-1.18,0-.44.32-.39.82.1.45.45.66.99.46,1.18-.2.2-.57.15-.82-.1Z"/>
      <path id="path5" class="cls-2" d="M405.07,123.23c-5.72-2.04-9.46-7.68-9.46-14.29,0-7.66,5.48-13.28,13.47-13.78,5.27-.34,8.01.75,11.87,4.71,10.62,10.88-1.38,28.53-15.88,23.36Z"/>
      <path id="path11" class="cls-1" d="M275.73,219.74l-20.69-20.7,18.85-19.32c10.37-10.63,19.46-19.65,20.2-20.04,1.84-.98,3.07.6,7.86,10.14,6.21,12.36,8.51,25.97,6.7,39.66-1.29,9.76-6.41,23.4-11.03,29.4l-1.21,1.57-20.69-20.7Z"/>
      <path id="path12" class="cls-5" d="M231.19,268.16c-3.6-.35-7.54-1.37-11.83-3.07-7.39-2.93-16.81-7.75-18.26-9.35-.88-.98,1.31-3.41,19.75-21.83l20.74-20.73,20.62,20.76,20.62,20.76-1.9,1.57c-2.89,2.39-13.05,7.43-19.29,9.56-6.74,2.3-20.17,3.33-30.45,2.33h0Z"/>
      <path id="path13" class="cls-6" d="M184.37,237.6c-3.5-5.55-7.24-14.14-8.73-20.04-1.31-5.21-1.43-7.25-1.15-19.13.29-12.06.48-13.77,2.1-18.3,2.12-5.95,7.46-16.43,9.86-19.36l1.71-2.09,15.04,14.96c8.27,8.23,17.2,17.33,19.83,20.22l4.78,5.26-20.76,20.75-20.76,20.75-1.92-3.04Z"/>
      <path id="path14" class="cls-3" d="M183.83,231.52c-1.37-2.61-3.44-7.58-4.61-11.06-2.06-6.15-2.12-6.67-2.12-19.47,0-9.48.3-14.3,1.06-17.29,1.12-4.38,8.08-19.13,9.64-20.43.72-.6,4.87,3.23,18.86,17.4l17.94,18.16-18.7,18.71c-10.29,10.29-18.9,18.71-19.14,18.71s-1.56-2.13-2.93-4.74Z"/>
    </g>
  </g>
</svg>